<svg xmlns="http://www.w3.org/2000/svg" width="1200" height="760" viewBox="0 0 1200 760">
<defs>
  <linearGradient id="bg" x1="0" y1="0" x2="1" y2="1"><stop stop-color="#f7f5f0"/><stop offset="1" stop-color="#ece8df"/></linearGradient>
  <filter id="s" x="-20%" y="-20%" width="140%" height="140%"><feDropShadow dx="0" dy="14" stdDeviation="18" flood-color="#1f2530" flood-opacity=".12"/></filter>
</defs>
<rect width="1200" height="760" rx="42" fill="url(#bg)"/>
<g transform="translate(80 70)" filter="url(#s)">
  <rect width="470" height="270" rx="32" fill="#fff"/>
  <path d="M165 74l56-28h28l56 28 54 36-28 62-42-20v92H181v-92l-42 20-28-62z" fill="#4f75c9"/>
  <path d="M221 46c6 20 50 20 56 0" fill="none" stroke="#eef2fb" stroke-width="10" stroke-linecap="round"/>
  <path d="M225 94h50" stroke="#355aa4" stroke-width="8" stroke-linecap="round"/>
</g>
<g transform="translate(650 70)" filter="url(#s)">
  <rect width="470" height="270" rx="32" fill="#fff"/>
  <path d="M168 68l54-24h26l54 24 60 42-33 55-44-21v104H185V144l-44 21-33-55z" fill="#f4d7dc"/>
  <path d="M222 44c7 20 47 20 54 0" fill="none" stroke="#fff6f8" stroke-width="10" stroke-linecap="round"/>
  <circle cx="234" cy="92" r="8" fill="#9e6570"/><circle cx="260" cy="92" r="8" fill="#9e6570"/>
</g>
<g transform="translate(80 420)" filter="url(#s)">
  <rect width="470" height="270" rx="32" fill="#fff"/>
  <path d="M187 54h96l24 176H163z" fill="#95b36b"/>
  <path d="M190 95h90M181 142h108M173 190h124" stroke="#dfe8d4" stroke-width="12" stroke-linecap="round"/>
</g>
<g transform="translate(650 420)" filter="url(#s)">
  <rect width="470" height="270" rx="32" fill="#fff"/>
  <path d="M170 62l52-26h30l52 26 56 45-31 56-42-23v108H187V140l-42 23-31-56z" fill="#d5a15e"/>
  <path d="M222 36c7 22 48 22 55 0" fill="none" stroke="#f3e1c9" stroke-width="10" stroke-linecap="round"/>
  <rect x="218" y="90" width="58" height="10" rx="5" fill="#9b6c39"/>
</g>
</svg>